<svg width="34" height="45" viewBox="0 0 34 45" fill="none" xmlns="http://www.w3.org/2000/svg">
<rect width="34" height="45" fill="white"/>
<path d="M10.8789 0C15.7137 0 19.2854 0.739832 21.5941 2.21338C23.9028 3.68999 25.0556 6.044 25.0556 9.27848C25.0556 11.4827 24.4036 13.3659 23.1059 14.9312C21.8051 16.4964 19.909 17.49 17.4176 17.918V18.077C20.2744 18.5386 22.4539 19.5169 23.9563 21.0088C25.4587 22.5007 26.2083 24.5826 26.2083 27.2485C26.2083 29.7034 25.6225 31.7272 24.4508 33.3292C23.2791 34.928 21.6571 36.1203 19.5877 36.903C17.5184 37.6856 15.1278 38.0769 12.4191 38.0769H0V0H10.8789ZM11.5939 16.7991C15.2192 16.7991 17.8208 16.1938 19.3956 14.9862C20.9704 13.7786 21.7579 11.981 21.7579 9.59948C21.7579 7.21795 20.898 5.38672 19.1751 4.31977C17.4523 3.25282 14.6869 2.72087 10.8789 2.72087H3.18746V16.7991H11.5939ZM3.18746 19.4649V35.356H12.1419C15.7326 35.356 18.4066 34.656 20.1641 33.2497C21.9216 31.8464 22.8004 29.792 22.8004 27.0895C22.8004 24.387 21.8838 22.5282 20.0539 21.3023C18.2208 20.0764 15.4207 19.4619 11.6474 19.4619H3.18746V19.4649Z" fill="#182CE3"/>
<path d="M23.1185 44.9957C18.2837 44.9957 14.712 44.256 12.4033 42.7825C10.0946 41.306 8.94184 38.9522 8.94184 35.718C8.94184 33.514 9.59382 31.6309 10.8915 30.0658C12.1923 28.5006 14.0884 27.5071 16.5798 27.0792V26.9202C13.723 26.4586 11.5435 25.4804 10.0411 23.9886C8.53868 22.4969 7.78906 20.4151 7.78906 17.7495C7.78906 15.2948 8.3749 13.2711 9.54657 11.6693C10.7182 10.0705 12.3403 8.8783 14.4097 8.09573C16.479 7.31316 18.8696 6.92188 21.5783 6.92188H33.9974V44.9988H23.1185V44.9957ZM22.4035 28.198C18.7782 28.198 16.1766 28.8033 14.6018 30.0107C13.027 31.2182 12.2395 33.0157 12.2395 35.397C12.2395 37.7784 13.0994 39.6095 14.8223 40.6763C16.5451 41.7432 19.3105 42.2751 23.1185 42.2751H30.8099V28.198H22.4035ZM30.8099 25.5324V9.63947H21.8555C18.2648 9.63947 15.5908 10.3395 13.8333 11.7457C12.0758 13.1488 11.197 15.2031 11.197 17.9054C11.197 20.6077 12.1135 22.4663 13.9435 23.6921C15.7766 24.9179 18.5767 25.5324 22.3499 25.5324H30.8099Z" fill="#182CE3"/>
<path d="M31.8724 8.30859L24.8765 9.10603L20.7802 15.5911L14.6692 18.2378L21.6873 19.7831L24.6283 24.6391L26.0415 27.3479L24.1763 31.9184L21.6873 35.6729L12.6322 37.4353L9.91406 38.0994L13.7621 41.4101L21.2322 43.6163H31.1945L31.8724 8.30859Z" fill="#182CE3"/>
<path d="M2.125 35.9982L9.12187 35.2133L13.2188 28.8585L19.3307 26.2606L12.3115 24.7487L9.37017 19.9879L7.95679 17.3292L9.82219 12.8483L12.3115 9.17044L21.368 7.43952L24.0833 6.79156L20.2347 3.5457L12.7636 1.38281H2.80304L2.125 35.9982Z" fill="#182CE3"/>
</svg>
